<?xml version="1.0" encoding="UTF-8"?>
<!DOCTYPE svg PUBLIC "-//W3C//DTD SVG 1.1//EN" "http://www.w3.org/Graphics/SVG/1.1/DTD/svg11.dtd">
<svg version="1.2" width="90.48mm" height="46.82mm" viewBox="10977 33712 9048 4682" preserveAspectRatio="xMidYMid" fill-rule="evenodd" stroke-width="28.222" stroke-linejoin="round" xmlns="http://www.w3.org/2000/svg" xmlns:ooo="http://xml.openoffice.org/svg/export" xmlns:xlink="http://www.w3.org/1999/xlink" xmlns:presentation="http://sun.com/xmlns/staroffice/presentation" xmlns:smil="http://www.w3.org/2001/SMIL20/" xmlns:anim="urn:oasis:names:tc:opendocument:xmlns:animation:1.0" xmlns:svg="urn:oasis:names:tc:opendocument:xmlns:svg-compatible:1.0" xml:space="preserve">
 <defs class="EmbeddedBulletChars">
  <g id="bullet-char-template-57356" transform="scale(0.00048828125,-0.00048828125)">
   <path d="M 580,1141 L 1163,571 580,0 -4,571 580,1141 Z"/>
  </g>
  <g id="bullet-char-template-57354" transform="scale(0.00048828125,-0.00048828125)">
   <path d="M 8,1128 L 1137,1128 1137,0 8,0 8,1128 Z"/>
  </g>
  <g id="bullet-char-template-10146" transform="scale(0.00048828125,-0.00048828125)">
   <path d="M 174,0 L 602,739 174,1481 1456,739 174,0 Z M 1358,739 L 309,1346 659,739 1358,739 Z"/>
  </g>
  <g id="bullet-char-template-10132" transform="scale(0.00048828125,-0.00048828125)">
   <path d="M 2015,739 L 1276,0 717,0 1260,543 174,543 174,936 1260,936 717,1481 1274,1481 2015,739 Z"/>
  </g>
  <g id="bullet-char-template-10007" transform="scale(0.00048828125,-0.00048828125)">
   <path d="M 0,-2 C -7,14 -16,27 -25,37 L 356,567 C 262,823 215,952 215,954 215,979 228,992 255,992 264,992 276,990 289,987 310,991 331,999 354,1012 L 381,999 492,748 772,1049 836,1024 860,1049 C 881,1039 901,1025 922,1006 886,937 835,863 770,784 769,783 710,716 594,584 L 774,223 C 774,196 753,168 711,139 L 727,119 C 717,90 699,76 672,76 641,76 570,178 457,381 L 164,-76 C 142,-110 111,-127 72,-127 30,-127 9,-110 8,-76 1,-67 -2,-52 -2,-32 -2,-23 -1,-13 0,-2 Z"/>
  </g>
  <g id="bullet-char-template-10004" transform="scale(0.00048828125,-0.00048828125)">
   <path d="M 285,-33 C 182,-33 111,30 74,156 52,228 41,333 41,471 41,549 55,616 82,672 116,743 169,778 240,778 293,778 328,747 346,684 L 369,508 C 377,444 397,411 428,410 L 1163,1116 C 1174,1127 1196,1133 1229,1133 1271,1133 1292,1118 1292,1087 L 1292,965 C 1292,929 1282,901 1262,881 L 442,47 C 390,-6 338,-33 285,-33 Z"/>
  </g>
  <g id="bullet-char-template-9679" transform="scale(0.00048828125,-0.00048828125)">
   <path d="M 813,0 C 632,0 489,54 383,161 276,268 223,411 223,592 223,773 276,916 383,1023 489,1130 632,1184 813,1184 992,1184 1136,1130 1245,1023 1353,916 1407,772 1407,592 1407,412 1353,268 1245,161 1136,54 992,0 813,0 Z"/>
  </g>
  <g id="bullet-char-template-8226" transform="scale(0.00048828125,-0.00048828125)">
   <path d="M 346,457 C 273,457 209,483 155,535 101,586 74,649 74,723 74,796 101,859 155,911 209,963 273,989 346,989 419,989 480,963 531,910 582,859 608,796 608,723 608,648 583,586 532,535 482,483 420,457 346,457 Z"/>
  </g>
  <g id="bullet-char-template-8211" transform="scale(0.00048828125,-0.00048828125)">
   <path d="M -4,459 L 1135,459 1135,606 -4,606 -4,459 Z"/>
  </g>
  <g id="bullet-char-template-61548" transform="scale(0.00048828125,-0.00048828125)">
   <path d="M 173,740 C 173,903 231,1043 346,1159 462,1274 601,1332 765,1332 928,1332 1067,1274 1183,1159 1299,1043 1357,903 1357,740 1357,577 1299,437 1183,322 1067,206 928,148 765,148 601,148 462,206 346,322 231,437 173,577 173,740 Z"/>
  </g>
 </defs>
 <g class="Page">
  <g class="Group">
   <g class="com.sun.star.drawing.ClosedBezierShape">
    <g id="id3">
     <rect class="BoundingBox" stroke="none" fill="none" x="12728" y="33725" width="1738" height="1747"/>
     <path fill="rgb(255,255,255)" stroke="none" d="M 12834,34952 C 12818,34952 12806,34947 12795,34937 12785,34927 12780,34914 12780,34899 12780,34883 12785,34870 12795,34860 12806,34849 12818,34843 12834,34843 L 13087,34843 13087,34522 12784,34522 C 12769,34522 12756,34516 12745,34505 12734,34495 12729,34482 12729,34466 12729,34451 12734,34438 12745,34428 12756,34418 12769,34413 12784,34413 L 13087,34413 13087,34087 13060,34087 C 13001,34161 12939,34225 12875,34281 12863,34294 12847,34301 12830,34302 12812,34304 12796,34298 12782,34285 12771,34275 12766,34261 12767,34244 12768,34227 12775,34213 12788,34201 12834,34163 12879,34118 12924,34066 12969,34014 13011,33961 13050,33906 13088,33851 13120,33802 13144,33757 13153,33741 13165,33731 13181,33727 13197,33723 13213,33725 13228,33733 13242,33740 13251,33752 13255,33767 13260,33782 13258,33797 13251,33811 13235,33839 13219,33866 13201,33894 13183,33921 13164,33949 13144,33978 L 14295,33978 C 14309,33978 14321,33984 14332,33994 14343,34004 14348,34017 14348,34032 14348,34047 14343,34060 14332,34071 14321,34082 14309,34087 14295,34087 L 14104,34087 14104,34413 14411,34413 C 14426,34413 14439,34418 14449,34428 14459,34438 14464,34451 14464,34466 14464,34482 14459,34495 14449,34505 14439,34516 14426,34522 14411,34522 L 14104,34522 14104,34843 14358,34843 C 14371,34843 14384,34849 14395,34860 14405,34870 14411,34883 14411,34899 14411,34914 14405,34927 14395,34937 14384,34947 14371,34952 14358,34952 L 12834,34952 Z M 13799,34413 L 13992,34413 13992,34087 13799,34087 13799,34413 Z M 13799,34843 L 13992,34843 13992,34522 13799,34522 13799,34843 Z M 13498,34413 L 13687,34413 13687,34087 13498,34087 13498,34413 Z M 13199,34413 L 13386,34413 13386,34087 13199,34087 13199,34413 Z M 13498,34843 L 13687,34843 13687,34522 13498,34522 13498,34843 Z M 13199,34843 L 13386,34843 13386,34522 13199,34522 13199,34843 Z M 14384,35451 C 14370,35460 14355,35462 14338,35458 14322,35453 14309,35444 14300,35430 14285,35401 14264,35366 14237,35325 14209,35283 14181,35242 14151,35202 14121,35161 14095,35127 14072,35101 14063,35089 14059,35076 14060,35061 14062,35045 14069,35033 14081,35024 14095,35014 14110,35010 14126,35011 14142,35012 14154,35019 14163,35032 14189,35060 14217,35095 14248,35136 14279,35177 14309,35218 14338,35260 14366,35301 14389,35336 14405,35365 14414,35381 14417,35396 14413,35412 14409,35428 14399,35441 14384,35451 Z M 12784,35455 C 12771,35444 12764,35429 12763,35412 12762,35395 12767,35381 12778,35369 12802,35346 12829,35316 12859,35279 12889,35241 12918,35203 12946,35163 12974,35123 12996,35088 13013,35059 13020,35045 13032,35036 13048,35031 13064,35027 13079,35028 13093,35036 13108,35044 13118,35055 13122,35071 13127,35087 13124,35102 13115,35116 13096,35150 13073,35187 13046,35226 13019,35266 12990,35304 12961,35342 12932,35379 12904,35412 12877,35442 12865,35456 12849,35464 12832,35467 12814,35471 12798,35466 12784,35455 Z M 13851,35461 C 13834,35465 13819,35463 13804,35455 13789,35447 13781,35435 13778,35419 13773,35390 13766,35355 13757,35315 13749,35275 13739,35235 13729,35194 13719,35153 13709,35120 13700,35093 13695,35078 13696,35064 13704,35050 13712,35037 13723,35028 13738,35024 13774,35014 13798,35026 13811,35061 13821,35090 13831,35125 13841,35165 13851,35206 13862,35246 13872,35286 13882,35326 13890,35362 13895,35392 13898,35409 13896,35423 13888,35436 13880,35449 13867,35457 13851,35461 Z M 13430,35468 C 13413,35472 13398,35470 13385,35462 13372,35453 13364,35441 13361,35425 13359,35398 13355,35365 13349,35325 13343,35286 13337,35247 13330,35207 13323,35168 13317,35136 13312,35112 13308,35096 13310,35081 13319,35069 13328,35057 13340,35050 13355,35047 13372,35044 13387,35045 13399,35051 13412,35058 13420,35070 13424,35087 13432,35115 13439,35149 13446,35188 13453,35228 13459,35267 13465,35305 13471,35344 13475,35378 13477,35405 13481,35441 13465,35462 13430,35468 Z"/>
    </g>
   </g>
   <g class="com.sun.star.drawing.ClosedBezierShape">
    <g id="id4">
     <rect class="BoundingBox" stroke="none" fill="none" x="14650" y="33712" width="1713" height="1792"/>
     <path fill="rgb(255,255,255)" stroke="none" d="M 15304,35503 C 15285,35503 15270,35497 15259,35487 15247,35476 15241,35462 15240,35446 15240,35429 15245,35415 15257,35403 15268,35391 15283,35384 15302,35383 15380,35380 15438,35372 15477,35357 15515,35342 15541,35316 15554,35276 15567,35237 15573,35180 15573,35106 15573,35096 15573,35086 15573,35076 15573,35066 15572,35056 15569,35047 15502,35094 15421,35144 15328,35196 15235,35248 15138,35297 15037,35342 14936,35387 14838,35425 14744,35455 14728,35460 14712,35459 14698,35452 14683,35445 14673,35434 14668,35417 14663,35402 14665,35388 14674,35375 14683,35362 14696,35354 14714,35349 14777,35329 14846,35305 14921,35274 14996,35244 15072,35210 15148,35172 15224,35135 15297,35096 15365,35056 15434,35016 15495,34978 15548,34943 15543,34925 15537,34907 15529,34889 15521,34871 15513,34854 15504,34838 15409,34900 15297,34959 15167,35016 15038,35072 14906,35118 14773,35154 14756,35159 14741,35159 14726,35154 14712,35149 14701,35137 14695,35120 14690,35103 14692,35089 14701,35076 14711,35063 14725,35054 14742,35049 14824,35031 14907,35007 14994,34976 15080,34945 15163,34910 15243,34871 15323,34832 15393,34794 15453,34756 15441,34739 15429,34723 15417,34707 15404,34691 15391,34676 15377,34660 15288,34705 15191,34747 15085,34785 14980,34824 14873,34856 14765,34881 14749,34885 14733,34884 14719,34879 14705,34873 14696,34861 14691,34843 14681,34807 14698,34783 14742,34773 14867,34747 14984,34715 15093,34676 15202,34636 15301,34593 15390,34546 L 15127,34546 C 15034,34546 14971,34531 14936,34500 14901,34470 14883,34417 14883,34340 14883,34263 14901,34209 14936,34179 14971,34148 15034,34133 15127,34133 L 15560,34133 C 15568,34122 15577,34110 15586,34098 15595,34086 15604,34074 15613,34062 15650,34009 15634,33982 15565,33982 L 15163,33982 C 15100,34044 15032,34104 14960,34159 14889,34215 14818,34265 14748,34308 14734,34317 14718,34321 14700,34319 14683,34318 14669,34309 14658,34293 14651,34281 14649,34267 14652,34251 14655,34234 14664,34222 14678,34215 14744,34178 14812,34132 14882,34077 14953,34021 15019,33964 15080,33904 15140,33844 15189,33790 15226,33740 15236,33725 15250,33716 15266,33714 15283,33711 15297,33714 15310,33723 15324,33733 15332,33746 15335,33761 15337,33776 15334,33790 15325,33801 15315,33814 15304,33827 15293,33840 15281,33854 15270,33867 15259,33881 L 15621,33881 C 15698,33881 15748,33901 15771,33941 15794,33981 15786,34027 15746,34080 15732,34099 15718,34116 15704,34133 L 15939,34133 C 16032,34133 16095,34148 16130,34179 16165,34209 16183,34263 16183,34340 16183,34417 16165,34470 16130,34500 16095,34531 16032,34546 15939,34546 L 15575,34546 C 15558,34558 15541,34569 15522,34579 15504,34590 15485,34601 15466,34613 15499,34648 15531,34687 15561,34728 15590,34769 15615,34814 15636,34861 15642,34866 15648,34871 15655,34877 15661,34883 15667,34889 15672,34895 15713,34872 15758,34844 15809,34812 15860,34780 15910,34747 15958,34713 16006,34679 16045,34650 16076,34626 16091,34614 16107,34608 16124,34609 16142,34610 16155,34617 16163,34628 16174,34641 16178,34655 16177,34670 16176,34685 16168,34698 16154,34708 16118,34735 16077,34763 16031,34793 15985,34823 15937,34852 15889,34882 15841,34911 15795,34937 15750,34960 15806,35003 15867,35046 15934,35089 16001,35133 16068,35172 16136,35207 16204,35243 16268,35273 16327,35297 16341,35302 16351,35312 16358,35328 16364,35343 16363,35359 16354,35375 16345,35392 16332,35402 16316,35405 16299,35408 16283,35406 16266,35398 16203,35370 16136,35336 16066,35297 15997,35258 15929,35215 15863,35169 15798,35124 15739,35077 15685,35030 15687,35042 15688,35053 15688,35065 15689,35078 15689,35089 15689,35101 15689,35201 15678,35281 15656,35339 15634,35397 15595,35439 15540,35465 15484,35490 15406,35503 15304,35503 Z M 15594,34443 L 15937,34443 C 15985,34443 16018,34436 16035,34422 16052,34408 16061,34381 16061,34340 16061,34299 16052,34271 16035,34257 16018,34243 15985,34236 15937,34236 L 15594,34236 15594,34443 Z M 15129,34443 L 15470,34443 15470,34236 15129,34236 C 15081,34236 15048,34243 15031,34257 15014,34271 15005,34299 15005,34340 15005,34381 15014,34408 15031,34422 15048,34436 15081,34443 15129,34443 Z"/>
    </g>
   </g>
   <g class="com.sun.star.drawing.ClosedBezierShape">
    <g id="id5">
     <rect class="BoundingBox" stroke="none" fill="none" x="16485" y="33755" width="1840" height="1705"/>
     <path fill="rgb(255,255,255)" stroke="none" d="M 17196,35459 C 17120,35459 17059,35451 17014,35434 16969,35418 16936,35389 16917,35349 16897,35309 16887,35254 16887,35184 16887,35113 16897,35058 16917,35019 16936,34979 16969,34951 17014,34935 17059,34918 17120,34910 17196,34910 L 17613,34910 C 17689,34910 17750,34918 17795,34935 17840,34951 17873,34979 17892,35019 17912,35058 17922,35113 17922,35184 17922,35254 17912,35309 17892,35349 17873,35389 17840,35418 17795,35434 17750,35451 17689,35459 17613,35459 L 17196,35459 Z M 16622,34760 C 16606,34760 16593,34754 16582,34743 16572,34733 16567,34720 16567,34704 16567,34690 16572,34678 16582,34667 16593,34656 16606,34651 16622,34651 L 17346,34651 17346,34434 16925,34434 C 16909,34434 16896,34429 16885,34418 16875,34407 16870,34394 16870,34379 16870,34365 16875,34352 16885,34342 16896,34331 16909,34325 16925,34325 L 17346,34325 17346,34156 C 17346,34138 17352,34124 17364,34113 17375,34102 17389,34097 17405,34097 17422,34097 17436,34102 17446,34113 17457,34124 17463,34138 17463,34156 L 17463,34325 17884,34325 C 17900,34325 17913,34331 17923,34342 17932,34352 17937,34365 17937,34379 17937,34394 17932,34407 17923,34418 17913,34429 17900,34434 17884,34434 L 17463,34434 17463,34651 18194,34651 C 18211,34651 18224,34656 18233,34667 18243,34678 18247,34690 18247,34704 18247,34720 18243,34733 18233,34743 18224,34754 18211,34760 18194,34760 L 16622,34760 Z M 17196,35350 L 17613,35350 C 17688,35350 17738,35339 17764,35316 17789,35293 17802,35249 17802,35184 17802,35120 17789,35076 17764,35053 17738,35030 17688,35019 17613,35019 L 17196,35019 C 17121,35019 17071,35030 17045,35053 17020,35076 17007,35120 17007,35184 17007,35249 17020,35293 17045,35316 17071,35339 17121,35350 17196,35350 Z M 16584,34438 C 16541,34457 16511,34449 16493,34415 16484,34400 16483,34384 16490,34369 16497,34354 16510,34343 16529,34335 16593,34310 16659,34277 16728,34239 16797,34200 16866,34157 16933,34111 17000,34065 17064,34017 17123,33967 17182,33918 17233,33869 17276,33822 17295,33801 17315,33784 17335,33773 17355,33761 17377,33756 17400,33756 17421,33756 17443,33762 17464,33775 17485,33788 17505,33805 17526,33826 17585,33888 17657,33950 17742,34012 17826,34074 17915,34130 18008,34182 18102,34233 18192,34275 18278,34308 18298,34316 18312,34328 18319,34344 18326,34361 18325,34377 18316,34394 18308,34410 18295,34421 18277,34426 18259,34431 18241,34430 18223,34423 18134,34384 18041,34338 17945,34283 17848,34229 17757,34169 17670,34103 17584,34038 17510,33972 17449,33904 17418,33869 17385,33868 17352,33902 17292,33968 17219,34035 17133,34102 17047,34168 16956,34230 16861,34288 16765,34346 16673,34396 16584,34438 Z"/>
    </g>
   </g>
   <g class="com.sun.star.drawing.ClosedBezierShape">
    <g id="id6">
     <rect class="BoundingBox" stroke="none" fill="none" x="10977" y="36586" width="379" height="1808"/>
     <path fill="rgb(255,255,255)" stroke="none" d="M 11330,38383 C 11316,38392 11302,38395 11287,38391 11273,38388 11261,38380 11250,38368 11165,38243 11099,38106 11050,37956 11002,37806 10978,37651 10978,37491 10978,37331 11002,37175 11050,37025 11099,36874 11165,36737 11250,36614 11261,36600 11273,36591 11287,36588 11302,36585 11316,36588 11330,36597 11344,36606 11352,36618 11354,36633 11356,36648 11353,36662 11344,36675 11264,36792 11201,36919 11157,37057 11113,37195 11090,37340 11090,37491 11090,37642 11113,37786 11157,37923 11201,38061 11264,38188 11344,38307 11353,38319 11356,38333 11354,38349 11352,38364 11344,38375 11330,38383 Z"/>
    </g>
   </g>
   <g class="com.sun.star.drawing.ClosedBezierShape">
    <g id="id7">
     <rect class="BoundingBox" stroke="none" fill="none" x="11578" y="37159" width="1241" height="938"/>
     <path fill="rgb(255,255,255)" stroke="none" d="M 11638,38095 C 11599,38095 11579,38074 11579,38032 L 11579,37245 C 11579,37203 11597,37182 11634,37182 11671,37182 11689,37196 11689,37224 L 11693,37325 C 11714,37278 11747,37238 11794,37207 11841,37175 11895,37159 11954,37159 12028,37159 12089,37176 12136,37210 12184,37245 12216,37292 12232,37353 12254,37298 12288,37251 12335,37214 12382,37177 12443,37159 12516,37159 12610,37159 12684,37189 12737,37248 12791,37307 12817,37395 12817,37514 L 12817,38032 C 12817,38074 12798,38095 12760,38095 12721,38095 12701,38074 12701,38032 L 12701,37531 C 12701,37434 12683,37366 12646,37327 12609,37287 12559,37268 12497,37268 12449,37268 12407,37280 12371,37305 12334,37330 12306,37362 12287,37402 12267,37442 12257,37486 12257,37533 L 12257,38032 C 12257,38074 12238,38095 12200,38095 12161,38095 12141,38074 12141,38032 L 12141,37531 C 12141,37434 12122,37366 12085,37327 12047,37287 11997,37268 11935,37268 11887,37268 11845,37280 11809,37306 11772,37331 11744,37364 11725,37404 11705,37444 11695,37486 11695,37531 L 11695,38032 C 11695,38074 11676,38095 11638,38095 Z"/>
    </g>
   </g>
   <g class="com.sun.star.drawing.ClosedBezierShape">
    <g id="id8">
     <rect class="BoundingBox" stroke="none" fill="none" x="13087" y="37182" width="722" height="935"/>
     <path fill="rgb(255,255,255)" stroke="none" d="M 13412,38116 C 13315,38116 13237,38085 13177,38023 13118,37960 13088,37871 13088,37756 L 13088,37245 C 13088,37203 13107,37182 13145,37182 13183,37182 13202,37203 13202,37245 L 13202,37741 C 13202,37829 13223,37896 13266,37941 13308,37985 13363,38007 13431,38007 13508,38007 13571,37983 13619,37935 13667,37887 13692,37828 13692,37758 L 13692,37245 C 13692,37203 13711,37182 13751,37182 13789,37182 13808,37203 13808,37245 L 13808,38030 C 13808,38072 13790,38093 13754,38093 13718,38093 13699,38079 13699,38051 L 13695,37965 C 13669,38007 13631,38043 13581,38072 13532,38101 13475,38116 13412,38116 Z"/>
    </g>
   </g>
   <g class="com.sun.star.drawing.ClosedBezierShape">
    <g id="id9">
     <rect class="BoundingBox" stroke="none" fill="none" x="14025" y="37181" width="693" height="915"/>
     <path fill="rgb(255,255,255)" stroke="none" d="M 14088,38095 C 14046,38095 14025,38078 14025,38044 L 14025,38036 C 14025,38007 14034,37981 14052,37958 L 14568,37285 14123,37285 C 14081,37285 14060,37268 14060,37233 14060,37199 14081,37182 14123,37182 L 14645,37182 C 14686,37182 14707,37199 14707,37233 L 14707,37241 C 14707,37256 14705,37270 14702,37282 14698,37294 14691,37307 14681,37319 L 14163,37992 14654,37992 C 14696,37992 14717,38009 14717,38042 14717,38077 14696,38095 14654,38095 L 14088,38095 Z"/>
    </g>
   </g>
   <g class="com.sun.star.drawing.ClosedBezierShape">
    <g id="id10">
     <rect class="BoundingBox" stroke="none" fill="none" x="14880" y="37159" width="850" height="958"/>
     <path fill="rgb(255,255,255)" stroke="none" d="M 15303,38116 C 15222,38116 15150,38096 15086,38055 15023,38014 14973,37958 14936,37886 14899,37814 14881,37732 14881,37638 14881,37543 14899,37461 14936,37389 14973,37317 15023,37261 15086,37220 15150,37179 15222,37159 15303,37159 15386,37159 15459,37179 15523,37220 15586,37261 15636,37317 15673,37389 15710,37461 15728,37543 15728,37638 15728,37732 15710,37814 15673,37886 15636,37958 15586,38014 15523,38055 15459,38096 15386,38116 15303,38116 Z M 15303,38007 C 15363,38007 15416,37992 15463,37962 15509,37931 15545,37888 15572,37833 15599,37778 15612,37712 15612,37638 15612,37563 15599,37497 15572,37442 15545,37387 15509,37344 15463,37313 15416,37283 15363,37268 15303,37268 15215,37268 15141,37301 15083,37368 15026,37434 14997,37524 14997,37638 14997,37749 15026,37839 15083,37906 15141,37974 15215,38007 15303,38007 Z"/>
    </g>
   </g>
   <g class="com.sun.star.drawing.ClosedBezierShape">
    <g id="id11">
     <rect class="BoundingBox" stroke="none" fill="none" x="15943" y="37553" width="597" height="116"/>
     <path fill="rgb(255,255,255)" stroke="none" d="M 16001,37668 C 15984,37668 15971,37663 15960,37652 15949,37641 15944,37627 15944,37611 15944,37596 15949,37582 15960,37571 15971,37559 15984,37554 16001,37554 L 16481,37554 C 16498,37554 16511,37559 16522,37571 16533,37582 16538,37596 16538,37611 16538,37627 16533,37641 16522,37652 16511,37663 16498,37668 16481,37668 L 16001,37668 Z"/>
    </g>
   </g>
   <g class="com.sun.star.drawing.ClosedBezierShape">
    <g id="id12">
     <rect class="BoundingBox" stroke="none" fill="none" x="16755" y="37159" width="709" height="958"/>
     <path fill="rgb(255,255,255)" stroke="none" d="M 17115,38116 C 17046,38116 16982,38104 16924,38081 16866,38057 16818,38024 16778,37981 16762,37967 16754,37952 16755,37938 16757,37923 16764,37910 16776,37899 16800,37878 16828,37881 16860,37906 16889,37939 16926,37965 16972,37983 17017,38000 17066,38009 17119,38009 17181,38009 17234,37996 17278,37968 17322,37941 17344,37898 17344,37840 17344,37787 17323,37751 17281,37731 17239,37711 17175,37692 17089,37674 17035,37662 16985,37648 16937,37632 16890,37615 16851,37590 16822,37556 16793,37523 16778,37476 16778,37416 16778,37362 16793,37315 16823,37277 16853,37239 16893,37210 16942,37190 16992,37169 17044,37159 17100,37159 17225,37159 17319,37198 17384,37275 17402,37288 17411,37301 17411,37315 17411,37329 17404,37342 17392,37353 17379,37366 17366,37372 17353,37370 17339,37368 17325,37361 17310,37350 17263,37294 17194,37266 17102,37266 17036,37266 16985,37280 16950,37309 16914,37337 16896,37373 16896,37414 16896,37461 16916,37495 16954,37515 16993,37534 17053,37553 17134,37571 17192,37583 17245,37599 17295,37618 17346,37637 17386,37664 17416,37699 17447,37733 17462,37780 17462,37841 17462,37923 17431,37989 17368,38040 17305,38091 17221,38116 17115,38116 Z"/>
    </g>
   </g>
   <g class="com.sun.star.drawing.ClosedBezierShape">
    <g id="id13">
     <rect class="BoundingBox" stroke="none" fill="none" x="17674" y="36719" width="724" height="1378"/>
     <path fill="rgb(255,255,255)" stroke="none" d="M 17734,38095 C 17695,38095 17675,38074 17675,38032 L 17675,36782 C 17675,36740 17695,36719 17734,36719 17772,36719 17791,36740 17791,36782 L 17791,37312 C 17818,37269 17856,37233 17905,37203 17953,37174 18009,37159 18071,37159 18169,37159 18248,37191 18307,37253 18367,37315 18397,37404 18397,37520 L 18397,38032 C 18397,38074 18378,38095 18340,38095 18302,38095 18283,38074 18283,38032 L 18283,37537 C 18283,37448 18261,37381 18219,37337 18176,37292 18121,37270 18054,37270 18003,37270 17958,37281 17918,37303 17878,37326 17847,37355 17825,37393 17802,37430 17791,37472 17791,37518 L 17791,38032 C 17791,38074 17772,38095 17734,38095 Z"/>
    </g>
   </g>
   <g class="com.sun.star.drawing.ClosedBezierShape">
    <g id="id14">
     <rect class="BoundingBox" stroke="none" fill="none" x="18627" y="37159" width="865" height="955"/>
     <path fill="rgb(255,255,255)" stroke="none" d="M 18927,38112 C 18838,38113 18766,38093 18711,38051 18655,38009 18628,37948 18628,37868 18628,37807 18648,37754 18690,37708 18731,37662 18784,37626 18848,37600 18912,37574 18978,37561 19047,37561 19141,37561 19215,37583 19270,37628 L 19270,37471 C 19270,37386 19252,37331 19216,37305 19181,37279 19124,37266 19045,37266 19003,37266 18957,37272 18907,37285 18857,37298 18811,37314 18771,37334 18733,37350 18705,37344 18689,37317 18670,37284 18680,37259 18719,37241 18766,37217 18819,37197 18878,37182 18937,37167 18993,37159 19045,37159 19160,37159 19246,37181 19300,37226 19355,37270 19382,37352 19382,37472 L 19382,37977 C 19382,37993 19385,38003 19392,38007 19398,38011 19411,38013 19432,38013 19448,38013 19462,38016 19474,38021 19485,38027 19491,38036 19491,38049 19491,38081 19475,38099 19443,38104 19433,38107 19422,38109 19411,38110 19399,38111 19388,38112 19378,38112 19335,38112 19307,38103 19294,38085 19282,38068 19274,38034 19272,37984 19232,38027 19180,38059 19115,38080 19051,38100 18988,38111 18927,38112 Z M 18933,38007 C 18993,38007 19050,37998 19103,37980 19156,37962 19198,37936 19229,37902 19260,37868 19274,37827 19272,37778 19268,37740 19246,37710 19207,37691 19167,37672 19117,37662 19054,37662 19002,37662 18952,37671 18904,37689 18856,37707 18817,37731 18787,37762 18757,37793 18742,37829 18742,37870 18742,37917 18760,37952 18795,37974 18831,37996 18877,38007 18933,38007 Z"/>
    </g>
   </g>
   <g class="com.sun.star.drawing.ClosedBezierShape">
    <g id="id15">
     <rect class="BoundingBox" stroke="none" fill="none" x="19648" y="36586" width="377" height="1808"/>
     <path fill="rgb(255,255,255)" stroke="none" d="M 19671,38383 C 19658,38375 19651,38364 19649,38349 19647,38333 19650,38319 19657,38307 19737,38188 19799,38061 19844,37923 19888,37786 19911,37642 19911,37491 19911,37340 19888,37195 19844,37057 19799,36919 19737,36792 19657,36675 19650,36662 19647,36648 19649,36633 19651,36618 19658,36606 19671,36597 19686,36588 19701,36585 19716,36588 19732,36591 19744,36600 19753,36614 19838,36737 19904,36874 19952,37025 19999,37175 20023,37331 20023,37491 20023,37651 19999,37806 19952,37956 19904,38106 19838,38243 19753,38368 19744,38380 19732,38388 19716,38391 19701,38395 19686,38392 19671,38383 Z"/>
    </g>
   </g>
  </g>
 </g>
</svg>