<?xml version="1.0" encoding="UTF-8"?>
<!DOCTYPE svg PUBLIC "-//W3C//DTD SVG 1.1//EN" "http://www.w3.org/Graphics/SVG/1.1/DTD/svg11.dtd">
<svg version="1.2" width="60.57mm" height="26.41mm" viewBox="12694 34360 6057 2641" preserveAspectRatio="xMidYMid" fill-rule="evenodd" stroke-width="28.222" stroke-linejoin="round" xmlns="http://www.w3.org/2000/svg" xmlns:ooo="http://xml.openoffice.org/svg/export" xmlns:xlink="http://www.w3.org/1999/xlink" xmlns:presentation="http://sun.com/xmlns/staroffice/presentation" xmlns:smil="http://www.w3.org/2001/SMIL20/" xmlns:anim="urn:oasis:names:tc:opendocument:xmlns:animation:1.0" xmlns:svg="urn:oasis:names:tc:opendocument:xmlns:svg-compatible:1.0" xml:space="preserve">
 <defs class="EmbeddedBulletChars">
  <g id="bullet-char-template-57356" transform="scale(0.00048828125,-0.00048828125)">
   <path d="M 580,1141 L 1163,571 580,0 -4,571 580,1141 Z"/>
  </g>
  <g id="bullet-char-template-57354" transform="scale(0.00048828125,-0.00048828125)">
   <path d="M 8,1128 L 1137,1128 1137,0 8,0 8,1128 Z"/>
  </g>
  <g id="bullet-char-template-10146" transform="scale(0.00048828125,-0.00048828125)">
   <path d="M 174,0 L 602,739 174,1481 1456,739 174,0 Z M 1358,739 L 309,1346 659,739 1358,739 Z"/>
  </g>
  <g id="bullet-char-template-10132" transform="scale(0.00048828125,-0.00048828125)">
   <path d="M 2015,739 L 1276,0 717,0 1260,543 174,543 174,936 1260,936 717,1481 1274,1481 2015,739 Z"/>
  </g>
  <g id="bullet-char-template-10007" transform="scale(0.00048828125,-0.00048828125)">
   <path d="M 0,-2 C -7,14 -16,27 -25,37 L 356,567 C 262,823 215,952 215,954 215,979 228,992 255,992 264,992 276,990 289,987 310,991 331,999 354,1012 L 381,999 492,748 772,1049 836,1024 860,1049 C 881,1039 901,1025 922,1006 886,937 835,863 770,784 769,783 710,716 594,584 L 774,223 C 774,196 753,168 711,139 L 727,119 C 717,90 699,76 672,76 641,76 570,178 457,381 L 164,-76 C 142,-110 111,-127 72,-127 30,-127 9,-110 8,-76 1,-67 -2,-52 -2,-32 -2,-23 -1,-13 0,-2 Z"/>
  </g>
  <g id="bullet-char-template-10004" transform="scale(0.00048828125,-0.00048828125)">
   <path d="M 285,-33 C 182,-33 111,30 74,156 52,228 41,333 41,471 41,549 55,616 82,672 116,743 169,778 240,778 293,778 328,747 346,684 L 369,508 C 377,444 397,411 428,410 L 1163,1116 C 1174,1127 1196,1133 1229,1133 1271,1133 1292,1118 1292,1087 L 1292,965 C 1292,929 1282,901 1262,881 L 442,47 C 390,-6 338,-33 285,-33 Z"/>
  </g>
  <g id="bullet-char-template-9679" transform="scale(0.00048828125,-0.00048828125)">
   <path d="M 813,0 C 632,0 489,54 383,161 276,268 223,411 223,592 223,773 276,916 383,1023 489,1130 632,1184 813,1184 992,1184 1136,1130 1245,1023 1353,916 1407,772 1407,592 1407,412 1353,268 1245,161 1136,54 992,0 813,0 Z"/>
  </g>
  <g id="bullet-char-template-8226" transform="scale(0.00048828125,-0.00048828125)">
   <path d="M 346,457 C 273,457 209,483 155,535 101,586 74,649 74,723 74,796 101,859 155,911 209,963 273,989 346,989 419,989 480,963 531,910 582,859 608,796 608,723 608,648 583,586 532,535 482,483 420,457 346,457 Z"/>
  </g>
  <g id="bullet-char-template-8211" transform="scale(0.00048828125,-0.00048828125)">
   <path d="M -4,459 L 1135,459 1135,606 -4,606 -4,459 Z"/>
  </g>
  <g id="bullet-char-template-61548" transform="scale(0.00048828125,-0.00048828125)">
   <path d="M 173,740 C 173,903 231,1043 346,1159 462,1274 601,1332 765,1332 928,1332 1067,1274 1183,1159 1299,1043 1357,903 1357,740 1357,577 1299,437 1183,322 1067,206 928,148 765,148 601,148 462,206 346,322 231,437 173,577 173,740 Z"/>
  </g>
 </defs>
 <g class="Page">
  <g class="Group">
   <g class="com.sun.star.drawing.ClosedBezierShape">
    <g id="id3">
     <rect class="BoundingBox" stroke="none" fill="none" x="12694" y="34360" width="6057" height="2641"/>
    </g>
   </g>
   <g class="com.sun.star.drawing.ClosedBezierShape">
    <g id="id4">
     <rect class="BoundingBox" stroke="none" fill="none" x="13258" y="34987" width="1544" height="1553"/>
     <path fill="rgb(255,255,255)" stroke="none" d="M 13351,36077 C 13338,36077 13326,36073 13317,36064 13308,36055 13304,36043 13304,36030 13304,36016 13308,36005 13317,35995 13326,35985 13338,35981 13351,35981 L 13576,35981 13576,35695 13307,35695 C 13294,35695 13282,35690 13272,35680 13263,35671 13258,35659 13258,35646 13258,35632 13263,35621 13272,35612 13282,35603 13294,35598 13307,35598 L 13576,35598 13576,35309 13553,35309 C 13500,35374 13445,35432 13388,35481 13377,35493 13364,35499 13348,35500 13332,35501 13318,35496 13305,35485 13295,35476 13291,35464 13292,35448 13293,35433 13299,35420 13310,35410 13351,35376 13391,35336 13432,35290 13472,35244 13509,35196 13543,35148 13578,35099 13606,35055 13627,35016 13635,35001 13646,34992 13660,34989 13674,34985 13688,34987 13702,34994 13714,35001 13722,35011 13726,35024 13730,35038 13729,35051 13722,35063 13708,35088 13694,35113 13678,35137 13662,35161 13645,35186 13627,35212 L 14650,35212 C 14662,35212 14673,35217 14683,35226 14692,35235 14697,35246 14697,35260 14697,35273 14692,35285 14683,35294 14673,35304 14662,35309 14650,35309 L 14480,35309 14480,35598 14753,35598 C 14766,35598 14778,35603 14787,35612 14796,35621 14800,35632 14800,35646 14800,35659 14796,35671 14787,35680 14778,35690 14766,35695 14753,35695 L 14480,35695 14480,35981 14706,35981 C 14718,35981 14729,35985 14739,35995 14748,36005 14753,36016 14753,36030 14753,36043 14748,36055 14739,36064 14729,36073 14718,36077 14706,36077 L 13351,36077 Z M 14209,35598 L 14380,35598 14380,35309 14209,35309 14209,35598 Z M 14209,35981 L 14380,35981 14380,35695 14209,35695 14209,35981 Z M 13942,35598 L 14110,35598 14110,35309 13942,35309 13942,35598 Z M 13676,35598 L 13842,35598 13842,35309 13676,35309 13676,35598 Z M 13942,35981 L 14110,35981 14110,35695 13942,35695 13942,35981 Z M 13676,35981 L 13842,35981 13842,35695 13676,35695 13676,35981 Z M 14729,36521 C 14717,36529 14703,36531 14689,36527 14674,36523 14663,36515 14655,36502 14641,36476 14622,36445 14598,36408 14574,36372 14548,36335 14522,36299 14495,36263 14472,36233 14452,36209 14444,36199 14440,36187 14441,36174 14443,36160 14449,36150 14460,36142 14472,36133 14486,36129 14500,36130 14514,36131 14525,36137 14533,36148 14555,36173 14581,36204 14608,36241 14636,36277 14662,36314 14688,36351 14713,36387 14733,36419 14748,36445 14756,36458 14758,36472 14755,36486 14751,36500 14743,36512 14729,36521 Z M 13307,36524 C 13296,36514 13290,36501 13288,36486 13287,36471 13292,36458 13302,36448 13323,36428 13347,36401 13374,36368 13400,36334 13426,36300 13451,36264 13476,36229 13496,36198 13510,36172 13517,36160 13527,36152 13542,36148 13556,36144 13569,36145 13581,36152 13595,36159 13604,36169 13608,36183 13612,36197 13610,36211 13602,36223 13585,36253 13564,36286 13540,36321 13516,36356 13491,36390 13465,36424 13439,36457 13414,36486 13390,36512 13379,36525 13365,36532 13349,36535 13334,36538 13320,36534 13307,36524 Z M 14255,36529 C 14241,36533 14227,36531 14214,36524 14201,36517 14193,36507 14191,36492 14186,36466 14180,36435 14172,36400 14164,36364 14156,36328 14147,36292 14138,36256 14129,36226 14121,36203 14117,36189 14118,36176 14125,36165 14132,36153 14142,36145 14155,36142 14187,36133 14208,36143 14220,36174 14229,36200 14238,36231 14247,36267 14256,36303 14265,36339 14274,36374 14283,36410 14290,36441 14294,36468 14298,36483 14296,36496 14288,36507 14281,36519 14270,36526 14255,36529 Z M 13881,36536 C 13866,36540 13853,36538 13841,36530 13829,36523 13822,36512 13820,36497 13818,36473 13814,36444 13809,36409 13804,36374 13798,36339 13792,36304 13786,36269 13781,36241 13776,36220 13773,36205 13775,36192 13783,36181 13791,36171 13801,36164 13815,36162 13830,36159 13843,36160 13854,36165 13865,36171 13873,36182 13876,36198 13883,36222 13889,36252 13895,36287 13902,36322 13907,36357 13912,36391 13917,36426 13921,36455 13923,36480 13927,36512 13913,36530 13881,36536 Z"/>
    </g>
   </g>
   <g class="com.sun.star.drawing.ClosedBezierShape">
    <g id="id5">
     <rect class="BoundingBox" stroke="none" fill="none" x="14964" y="34977" width="1524" height="1592"/>
     <path fill="rgb(255,255,255)" stroke="none" d="M 15546,36567 C 15529,36567 15516,36563 15505,36553 15495,36543 15490,36531 15489,36517 15489,36502 15494,36489 15504,36479 15514,36468 15527,36462 15544,36461 15613,36459 15665,36451 15699,36438 15734,36425 15756,36401 15768,36366 15779,36331 15785,36281 15785,36215 15785,36206 15785,36197 15785,36188 15785,36179 15784,36171 15781,36163 15721,36205 15650,36249 15567,36295 15484,36341 15398,36384 15308,36424 15218,36464 15132,36498 15048,36525 15034,36530 15020,36529 15007,36523 14994,36516 14985,36506 14980,36491 14976,36478 14978,36465 14986,36454 14993,36443 15005,36435 15021,36430 15078,36413 15139,36391 15206,36364 15272,36337 15339,36307 15407,36274 15475,36240 15539,36206 15600,36170 15661,36135 15715,36101 15763,36070 15758,36054 15752,36038 15746,36022 15739,36007 15732,35991 15724,35977 15639,36032 15539,36085 15424,36135 15309,36185 15192,36226 15074,36258 15059,36262 15045,36262 15032,36258 15019,36253 15010,36243 15004,36227 15000,36213 15002,36200 15010,36188 15019,36177 15031,36169 15047,36165 15119,36149 15193,36127 15270,36099 15347,36072 15421,36041 15492,36006 15563,35972 15625,35938 15678,35904 15668,35889 15657,35875 15646,35861 15635,35847 15623,35833 15610,35819 15531,35859 15445,35896 15351,35930 15258,35964 15163,35993 15067,36016 15052,36019 15039,36018 15026,36013 15014,36008 15005,35997 15001,35982 14992,35949 15007,35928 15047,35919 15157,35896 15261,35868 15358,35833 15455,35798 15543,35759 15622,35718 L 15389,35718 C 15306,35718 15250,35704 15219,35677 15188,35650 15172,35602 15172,35535 15172,35466 15188,35418 15219,35391 15250,35364 15306,35350 15389,35350 L 15773,35350 C 15781,35340 15789,35330 15797,35319 15804,35308 15812,35298 15820,35288 15853,35240 15839,35216 15778,35216 L 15421,35216 C 15364,35272 15304,35324 15241,35374 15177,35424 15114,35468 15052,35506 15039,35514 15025,35517 15009,35516 14994,35515 14981,35507 14972,35492 14965,35482 14963,35470 14966,35455 14969,35441 14977,35430 14989,35423 15048,35390 15108,35349 15171,35300 15234,35251 15292,35200 15346,35147 15400,35094 15444,35045 15477,35001 15486,34988 15498,34980 15512,34978 15527,34975 15540,34978 15551,34986 15564,34995 15571,35007 15573,35020 15575,35034 15573,35045 15565,35056 15556,35067 15546,35078 15536,35090 15526,35102 15516,35114 15505,35127 L 15827,35127 C 15896,35127 15940,35145 15961,35180 15981,35216 15974,35257 15939,35303 15926,35320 15914,35336 15902,35350 L 16110,35350 C 16192,35350 16249,35364 16280,35391 16311,35418 16327,35466 16327,35535 16327,35602 16311,35650 16280,35677 16249,35704 16192,35718 16110,35718 L 15786,35718 C 15772,35728 15756,35738 15740,35747 15723,35757 15707,35767 15690,35777 15719,35808 15747,35843 15774,35879 15800,35916 15823,35955 15841,35997 15846,36001 15852,36006 15858,36011 15863,36016 15868,36022 15873,36027 15909,36007 15950,35983 15995,35954 16040,35925 16084,35896 16127,35866 16170,35836 16205,35810 16232,35789 16245,35777 16260,35772 16275,35773 16290,35775 16302,35780 16310,35790 16319,35802 16323,35814 16321,35828 16320,35841 16314,35852 16301,35861 16270,35885 16233,35910 16192,35937 16151,35963 16109,35990 16066,36016 16023,36042 15982,36065 15942,36085 15992,36123 16046,36162 16106,36200 16165,36238 16225,36273 16285,36305 16345,36337 16402,36363 16455,36385 16468,36389 16477,36398 16482,36412 16488,36425 16487,36439 16479,36454 16471,36469 16460,36477 16445,36480 16430,36483 16416,36481 16401,36474 16345,36450 16285,36420 16223,36385 16161,36350 16101,36312 16043,36271 15985,36231 15932,36189 15885,36148 15886,36158 15887,36168 15887,36179 15888,36190 15888,36200 15888,36210 15888,36299 15878,36370 15858,36422 15839,36474 15804,36511 15755,36534 15706,36556 15636,36567 15546,36567 Z M 15803,35626 L 16108,35626 C 16151,35626 16180,35620 16195,35608 16211,35595 16218,35571 16218,35535 16218,35498 16211,35473 16195,35460 16180,35448 16151,35442 16108,35442 L 15803,35442 15803,35626 Z M 15390,35626 L 15693,35626 15693,35442 15390,35442 C 15348,35442 15318,35448 15303,35460 15288,35473 15280,35498 15280,35535 15280,35571 15288,35595 15303,35608 15318,35620 15348,35626 15390,35626 Z"/>
    </g>
   </g>
   <g class="com.sun.star.drawing.ClosedBezierShape">
    <g id="id6">
     <rect class="BoundingBox" stroke="none" fill="none" x="16596" y="35014" width="1636" height="1515"/>
     <path fill="rgb(255,255,255)" stroke="none" d="M 17228,36528 C 17161,36528 17107,36520 17067,36506 17027,36491 16998,36466 16980,36430 16963,36395 16954,36346 16954,36284 16954,36221 16963,36172 16980,36137 16998,36102 17027,36077 17067,36062 17107,36047 17161,36040 17228,36040 L 17599,36040 C 17667,36040 17721,36047 17761,36062 17801,36077 17830,36102 17847,36137 17865,36172 17873,36221 17873,36284 17873,36346 17865,36395 17847,36430 17830,36466 17801,36491 17761,36506 17721,36520 17667,36528 17599,36528 L 17228,36528 Z M 16719,35906 C 16704,35906 16692,35901 16683,35892 16674,35882 16670,35871 16670,35857 16670,35845 16674,35834 16683,35824 16692,35815 16704,35810 16719,35810 L 17362,35810 17362,35617 16988,35617 C 16973,35617 16961,35612 16952,35602 16943,35593 16939,35581 16939,35568 16939,35555 16943,35544 16952,35535 16961,35525 16973,35520 16988,35520 L 17362,35520 17362,35370 C 17362,35354 17367,35341 17377,35331 17387,35322 17400,35317 17415,35317 17429,35317 17441,35322 17451,35331 17461,35341 17465,35354 17465,35370 L 17465,35520 17840,35520 C 17854,35520 17866,35525 17874,35535 17883,35544 17887,35555 17887,35568 17887,35581 17883,35593 17874,35602 17866,35612 17854,35617 17840,35617 L 17465,35617 17465,35810 18115,35810 C 18130,35810 18142,35815 18150,35824 18159,35834 18163,35845 18163,35857 18163,35871 18159,35882 18150,35892 18142,35901 18130,35906 18115,35906 L 16719,35906 Z M 17228,36431 L 17599,36431 C 17666,36431 17710,36421 17733,36401 17755,36380 17767,36341 17767,36284 17767,36226 17755,36187 17733,36167 17710,36147 17666,36137 17599,36137 L 17228,36137 C 17162,36137 17117,36147 17095,36167 17072,36187 17061,36226 17061,36284 17061,36341 17072,36380 17095,36401 17117,36421 17162,36431 17228,36431 Z M 16685,35620 C 16647,35637 16619,35630 16604,35600 16596,35586 16595,35573 16601,35559 16607,35546 16619,35535 16636,35529 16692,35506 16751,35478 16813,35443 16874,35409 16935,35371 16995,35330 17055,35289 17111,35246 17163,35202 17216,35158 17261,35115 17299,35073 17316,35054 17334,35039 17352,35029 17370,35019 17389,35014 17410,35014 17429,35014 17448,35020 17466,35031 17485,35042 17503,35057 17521,35077 17574,35132 17638,35187 17713,35242 17788,35296 17867,35347 17950,35392 18033,35438 18113,35476 18190,35505 18208,35512 18220,35522 18226,35537 18233,35552 18232,35566 18224,35581 18217,35596 18205,35605 18189,35610 18173,35614 18157,35613 18141,35607 18062,35573 17979,35532 17894,35483 17808,35434 17727,35381 17650,35323 17573,35265 17508,35206 17454,35146 17425,35114 17397,35114 17367,35144 17314,35203 17249,35262 17172,35321 17096,35381 17015,35436 16930,35487 16846,35539 16764,35583 16685,35620 Z"/>
    </g>
   </g>
  </g>
 </g>
</svg>