<?xml version="1.0" encoding="UTF-8"?>
<!DOCTYPE svg PUBLIC "-//W3C//DTD SVG 1.1//EN" "http://www.w3.org/Graphics/SVG/1.1/DTD/svg11.dtd">
<svg version="1.2" width="278.21mm" height="198.66mm" viewBox="1129 2185 27821 19866" preserveAspectRatio="xMidYMid" fill-rule="evenodd" stroke-width="28.222" stroke-linejoin="round" xmlns="http://www.w3.org/2000/svg" xmlns:ooo="http://xml.openoffice.org/svg/export" xmlns:xlink="http://www.w3.org/1999/xlink" xmlns:presentation="http://sun.com/xmlns/staroffice/presentation" xmlns:smil="http://www.w3.org/2001/SMIL20/" xmlns:anim="urn:oasis:names:tc:opendocument:xmlns:animation:1.0" xmlns:svg="urn:oasis:names:tc:opendocument:xmlns:svg-compatible:1.0" xml:space="preserve">
 <defs class="EmbeddedBulletChars">
  <g id="bullet-char-template-57356" transform="scale(0.00048828125,-0.00048828125)">
   <path d="M 580,1141 L 1163,571 580,0 -4,571 580,1141 Z"/>
  </g>
  <g id="bullet-char-template-57354" transform="scale(0.00048828125,-0.00048828125)">
   <path d="M 8,1128 L 1137,1128 1137,0 8,0 8,1128 Z"/>
  </g>
  <g id="bullet-char-template-10146" transform="scale(0.00048828125,-0.00048828125)">
   <path d="M 174,0 L 602,739 174,1481 1456,739 174,0 Z M 1358,739 L 309,1346 659,739 1358,739 Z"/>
  </g>
  <g id="bullet-char-template-10132" transform="scale(0.00048828125,-0.00048828125)">
   <path d="M 2015,739 L 1276,0 717,0 1260,543 174,543 174,936 1260,936 717,1481 1274,1481 2015,739 Z"/>
  </g>
  <g id="bullet-char-template-10007" transform="scale(0.00048828125,-0.00048828125)">
   <path d="M 0,-2 C -7,14 -16,27 -25,37 L 356,567 C 262,823 215,952 215,954 215,979 228,992 255,992 264,992 276,990 289,987 310,991 331,999 354,1012 L 381,999 492,748 772,1049 836,1024 860,1049 C 881,1039 901,1025 922,1006 886,937 835,863 770,784 769,783 710,716 594,584 L 774,223 C 774,196 753,168 711,139 L 727,119 C 717,90 699,76 672,76 641,76 570,178 457,381 L 164,-76 C 142,-110 111,-127 72,-127 30,-127 9,-110 8,-76 1,-67 -2,-52 -2,-32 -2,-23 -1,-13 0,-2 Z"/>
  </g>
  <g id="bullet-char-template-10004" transform="scale(0.00048828125,-0.00048828125)">
   <path d="M 285,-33 C 182,-33 111,30 74,156 52,228 41,333 41,471 41,549 55,616 82,672 116,743 169,778 240,778 293,778 328,747 346,684 L 369,508 C 377,444 397,411 428,410 L 1163,1116 C 1174,1127 1196,1133 1229,1133 1271,1133 1292,1118 1292,1087 L 1292,965 C 1292,929 1282,901 1262,881 L 442,47 C 390,-6 338,-33 285,-33 Z"/>
  </g>
  <g id="bullet-char-template-9679" transform="scale(0.00048828125,-0.00048828125)">
   <path d="M 813,0 C 632,0 489,54 383,161 276,268 223,411 223,592 223,773 276,916 383,1023 489,1130 632,1184 813,1184 992,1184 1136,1130 1245,1023 1353,916 1407,772 1407,592 1407,412 1353,268 1245,161 1136,54 992,0 813,0 Z"/>
  </g>
  <g id="bullet-char-template-8226" transform="scale(0.00048828125,-0.00048828125)">
   <path d="M 346,457 C 273,457 209,483 155,535 101,586 74,649 74,723 74,796 101,859 155,911 209,963 273,989 346,989 419,989 480,963 531,910 582,859 608,796 608,723 608,648 583,586 532,535 482,483 420,457 346,457 Z"/>
  </g>
  <g id="bullet-char-template-8211" transform="scale(0.00048828125,-0.00048828125)">
   <path d="M -4,459 L 1135,459 1135,606 -4,606 -4,459 Z"/>
  </g>
  <g id="bullet-char-template-61548" transform="scale(0.00048828125,-0.00048828125)">
   <path d="M 173,740 C 173,903 231,1043 346,1159 462,1274 601,1332 765,1332 928,1332 1067,1274 1183,1159 1299,1043 1357,903 1357,740 1357,577 1299,437 1183,322 1067,206 928,148 765,148 601,148 462,206 346,322 231,437 173,577 173,740 Z"/>
  </g>
 </defs>
 <g class="Page">
  <g class="com.sun.star.drawing.ClosedBezierShape">
   <g id="id3">
    <rect class="BoundingBox" stroke="none" fill="none" x="1129" y="3200" width="27821" height="18851"/>
    <path fill="rgb(255,219,182)" stroke="none" d="M 4181,3201 C 3646,3201 3119,3342 2655,3610 2191,3878 1806,4263 1538,4727 1270,5191 1129,5718 1129,6253 1129,10501 1129,14749 1129,18997 L 1129,18998 C 1129,19533 1270,20060 1538,20524 1806,20988 2191,21373 2655,21641 3119,21909 3646,22050 4181,22050 11420,22050 18658,22050 25896,22050 L 25897,22050 C 26432,22050 26959,21909 27423,21641 27887,21373 28272,20988 28540,20524 28808,20060 28949,19533 28949,18998 28949,14749 28949,10501 28949,6253 28949,5718 28808,5191 28540,4727 28272,4263 27887,3878 27423,3610 26959,3342 26432,3201 25897,3201 18658,3201 11420,3201 4181,3201 Z"/>
   </g>
  </g>
  <g class="Group">
   <g class="com.sun.star.drawing.ClosedBezierShape">
    <g id="id4">
     <rect class="BoundingBox" stroke="none" fill="none" x="9948" y="12895" width="5129" height="4955"/>
     <path fill="rgb(0,0,0)" stroke="none" d="M 14817,17144 C 14886,17144 14947,17170 14998,17221 15050,17273 15075,17335 15075,17408 15075,17482 15050,17544 14998,17596 14947,17647 14886,17673 14817,17673 L 12307,17673 C 12238,17673 12177,17647 12126,17596 12074,17544 12049,17482 12049,17408 12049,17335 12074,17273 12126,17221 12177,17170 12238,17144 12307,17144 L 13375,17144 C 13408,17144 13424,17130 13424,17100 L 13424,14569 C 13424,14536 13408,14519 13375,14519 L 12522,14519 C 12452,14519 12393,14495 12343,14445 12293,14396 12269,14336 12269,14266 12269,14193 12293,14131 12343,14082 12393,14032 12452,14008 12522,14008 L 13375,14008 C 13408,14008 13424,13993 13424,13964 L 13424,13232 C 13424,13147 13453,13077 13510,13020 13567,12963 13637,12935 13722,12935 13802,12935 13871,12963 13928,13020 13985,13077 14013,13147 14013,13232 L 14013,13964 C 14013,13993 14030,14008 14063,14008 L 14740,14008 C 14809,14008 14869,14032 14918,14082 14968,14131 14993,14193 14993,14266 14993,14336 14969,14396 14921,14445 14873,14495 14813,14519 14740,14519 L 14063,14519 C 14030,14519 14013,14536 14013,14569 L 14013,17100 C 14013,17130 14030,17144 14063,17144 L 14817,17144 Z M 11999,14481 C 11900,14690 11781,14901 11641,15114 11623,15139 11627,15165 11652,15191 11920,15451 12146,15679 12329,15873 12377,15928 12400,15992 12398,16066 12396,16139 12370,16201 12318,16253 12267,16301 12206,16323 12134,16322 12062,16320 12001,16293 11950,16242 11715,15992 11526,15798 11383,15659 11375,15651 11367,15649 11358,15653 11349,15657 11344,15662 11344,15670 L 11344,17557 C 11344,17638 11317,17707 11262,17763 11207,17820 11139,17849 11058,17849 10977,17849 10909,17820 10852,17763 10795,17707 10766,17638 10766,17557 L 10766,16071 C 10766,16064 10763,16057 10755,16052 10748,16046 10741,16047 10733,16055 10594,16172 10447,16280 10293,16379 10227,16420 10158,16425 10087,16396 10015,16367 9972,16313 9957,16236 L 9957,16231 C 9939,16139 9947,16050 9982,15964 10017,15878 10073,15811 10150,15763 10737,15374 11170,14883 11449,14288 11463,14259 11454,14244 11421,14244 L 10304,14244 C 10231,14244 10168,14219 10117,14167 10066,14116 10040,14055 10040,13986 10040,13912 10066,13850 10117,13799 10168,13747 10231,13721 10304,13721 L 10733,13721 C 10766,13721 10783,13705 10783,13672 L 10783,13182 C 10783,13101 10811,13034 10868,12979 10925,12924 10994,12896 11075,12896 11155,12896 11223,12924 11278,12979 11333,13034 11361,13101 11361,13182 L 11361,13672 C 11361,13705 11377,13721 11410,13721 L 11845,13721 C 11915,13721 11975,13747 12027,13799 12078,13850 12104,13912 12104,13986 12104,14165 12069,14330 11999,14481 Z"/>
    </g>
   </g>
   <g class="com.sun.star.drawing.ClosedBezierShape">
    <g id="id5">
     <rect class="BoundingBox" stroke="none" fill="none" x="15515" y="12884" width="5021" height="4917"/>
     <path fill="rgb(0,0,0)" stroke="none" d="M 17777,15999 C 17660,16296 17495,16659 17282,17088 17274,17096 17274,17105 17282,17116 17289,17127 17298,17132 17309,17132 17918,17088 18593,17021 19334,16929 19367,16929 19377,16914 19362,16885 19347,16859 19318,16804 19274,16720 19230,16635 19195,16571 19169,16527 19133,16465 19126,16399 19150,16329 19174,16259 19219,16210 19285,16180 19358,16147 19431,16144 19502,16169 19574,16195 19630,16243 19670,16313 19927,16764 20132,17134 20286,17424 20323,17490 20329,17558 20303,17628 20277,17697 20230,17747 20160,17776 20090,17806 20017,17807 19940,17782 19863,17756 19806,17708 19769,17639 19718,17543 19679,17470 19654,17419 19639,17389 19617,17378 19588,17386 18344,17551 17183,17655 16104,17699 16034,17703 15973,17682 15920,17636 15867,17590 15838,17532 15834,17463 15831,17393 15852,17333 15898,17284 15944,17234 16001,17208 16071,17204 16284,17197 16443,17189 16550,17182 16579,17182 16603,17165 16621,17132 16820,16755 16997,16373 17155,15988 17159,15977 17157,15968 17150,15961 17142,15953 17133,15950 17122,15950 L 15934,15950 C 15864,15950 15805,15926 15757,15878 15710,15830 15686,15772 15686,15702 15686,15632 15710,15573 15757,15526 15805,15478 15864,15454 15934,15454 L 20116,15454 C 20186,15454 20244,15478 20292,15526 20340,15573 20363,15632 20363,15702 20363,15772 20340,15830 20292,15878 20244,15926 20186,15950 20116,15950 L 17838,15950 C 17812,15950 17792,15966 17777,15999 Z M 15912,14810 C 15846,14847 15777,14854 15705,14832 15634,14810 15581,14766 15548,14700 15512,14630 15505,14560 15529,14488 15553,14417 15598,14361 15664,14320 16302,13957 16889,13546 17425,13088 17583,12952 17764,12884 17970,12884 L 18080,12884 C 18285,12884 18467,12952 18625,13088 19149,13539 19736,13950 20385,14320 20452,14361 20496,14417 20520,14488 20544,14560 20538,14630 20501,14700 20468,14766 20415,14810 20341,14832 20268,14854 20198,14847 20132,14810 19905,14678 19736,14577 19626,14507 19604,14493 19593,14500 19593,14529 L 19593,14590 C 19593,14674 19562,14748 19499,14810 19437,14872 19364,14904 19279,14904 L 16770,14904 C 16686,14904 16612,14872 16550,14810 16488,14748 16456,14674 16456,14590 L 16456,14529 C 16456,14500 16442,14495 16412,14513 16332,14564 16165,14663 15912,14810 Z M 16594,14397 C 16590,14401 16588,14407 16588,14414 16588,14421 16592,14425 16599,14425 L 19450,14425 C 19457,14425 19462,14421 19464,14414 19466,14407 19465,14401 19461,14397 18947,14060 18480,13693 18058,13297 18036,13275 18014,13275 17992,13297 17562,13700 17097,14067 16594,14397 Z"/>
    </g>
   </g>
  </g>
  <g class="Group">
   <g class="com.sun.star.drawing.ClosedBezierShape">
    <g id="id6">
     <rect class="BoundingBox" stroke="none" fill="none" x="3261" y="2185" width="6057" height="2641"/>
     <path fill="rgb(255,255,255)" stroke="none" d="M 3701,2185 C 3624,2185 3548,2205 3481,2244 3414,2283 3359,2338 3320,2405 3281,2472 3261,2548 3261,2625 3261,3212 3261,3798 3261,4385 3261,4462 3281,4538 3320,4605 3359,4672 3414,4727 3481,4766 3548,4805 3624,4825 3701,4825 5426,4825 7152,4825 8877,4825 8954,4825 9030,4805 9097,4766 9164,4727 9219,4672 9258,4605 9297,4538 9317,4462 9317,4385 9317,3798 9317,3212 9317,2625 9317,2548 9297,2472 9258,2405 9219,2338 9164,2283 9097,2244 9030,2205 8954,2185 8877,2185 7152,2185 5426,2185 3701,2185 Z"/>
    </g>
   </g>
   <g class="com.sun.star.drawing.ClosedBezierShape">
    <g id="id7">
     <rect class="BoundingBox" stroke="none" fill="none" x="4659" y="2828" width="1558" height="1507"/>
     <path fill="rgb(0,0,0)" stroke="none" d="M 5788,4331 C 5660,4331 5549,4317 5457,4291 5364,4264 5286,4225 5222,4172 5158,4120 5104,4055 5059,3977 4972,4103 4872,4216 4759,4315 4748,4327 4734,4333 4718,4333 4701,4334 4687,4328 4674,4317 4663,4306 4658,4293 4659,4277 4660,4262 4666,4250 4678,4241 4768,4164 4851,4077 4926,3980 5001,3882 5056,3782 5093,3679 5098,3663 5108,3652 5122,3645 5136,3638 5151,3638 5165,3644 5181,3648 5192,3657 5198,3671 5205,3684 5205,3698 5199,3713 5188,3741 5176,3770 5162,3798 5148,3827 5133,3856 5116,3884 5186,4013 5279,4103 5394,4156 L 5394,3496 4976,3496 C 4961,3496 4949,3491 4939,3482 4930,3472 4925,3460 4925,3445 4925,3431 4930,3419 4939,3409 4949,3399 4961,3395 4976,3395 L 5905,3395 C 5921,3395 5933,3399 5942,3409 5951,3419 5956,3431 5956,3445 5956,3460 5951,3472 5942,3482 5933,3491 5921,3496 5905,3496 L 5504,3496 5504,3760 5917,3760 C 5933,3760 5946,3765 5955,3775 5965,3784 5970,3796 5970,3811 5970,3826 5965,3838 5955,3848 5946,3859 5933,3864 5917,3864 L 5504,3864 5504,4195 C 5586,4217 5681,4227 5788,4227 5847,4227 5908,4226 5972,4223 6036,4220 6096,4217 6152,4214 6169,4212 6184,4215 6196,4225 6209,4234 6215,4249 6215,4268 6215,4304 6195,4323 6154,4326 6108,4327 6051,4328 5984,4329 5917,4330 5852,4331 5788,4331 Z M 4784,3459 C 4770,3459 4757,3454 4746,3445 4736,3435 4730,3422 4730,3406 L 4730,3303 C 4730,3226 4749,3172 4787,3139 4825,3106 4890,3090 4983,3090 L 5382,3090 5382,2885 C 5382,2868 5388,2854 5399,2844 5410,2834 5423,2829 5438,2829 5454,2829 5467,2834 5479,2844 5490,2854 5495,2868 5495,2885 L 5495,3090 5902,3090 C 5994,3090 6059,3106 6096,3139 6134,3172 6152,3226 6152,3303 L 6152,3406 C 6152,3422 6147,3435 6137,3445 6127,3454 6114,3459 6098,3459 6084,3459 6071,3454 6060,3445 6049,3435 6044,3423 6044,3408 L 6044,3305 C 6044,3262 6033,3232 6012,3214 5990,3197 5951,3188 5893,3188 L 4991,3188 C 4932,3188 4892,3197 4871,3214 4849,3232 4839,3262 4839,3305 L 4839,3408 C 4839,3423 4834,3435 4823,3445 4813,3454 4800,3459 4784,3459 Z"/>
    </g>
   </g>
   <g class="com.sun.star.drawing.ClosedBezierShape">
    <g id="id8">
     <rect class="BoundingBox" stroke="none" fill="none" x="6340" y="2821" width="1596" height="1562"/>
     <path fill="rgb(0,0,0)" stroke="none" d="M 7134,4382 C 7119,4382 7106,4377 7096,4367 7085,4357 7080,4344 7080,4328 L 7080,4033 6778,4033 C 6765,4033 6753,4028 6743,4019 6732,4009 6727,3997 6727,3982 6727,3968 6732,3956 6743,3946 6753,3936 6765,3932 6778,3932 L 7080,3932 7080,3380 C 7032,3456 6974,3535 6905,3615 6836,3695 6762,3772 6682,3846 6602,3920 6520,3987 6436,4047 6423,4056 6407,4060 6390,4059 6374,4059 6360,4052 6350,4038 6341,4025 6338,4010 6341,3995 6345,3980 6354,3968 6368,3959 6459,3900 6546,3832 6631,3754 6716,3676 6793,3595 6862,3512 6931,3428 6988,3350 7032,3276 L 6441,3276 C 6427,3276 6414,3272 6405,3262 6395,3252 6390,3240 6390,3226 6390,3212 6395,3200 6405,3190 6414,3180 6427,3175 6441,3175 L 7080,3175 7080,2875 C 7080,2859 7085,2846 7096,2836 7106,2826 7119,2821 7134,2821 7148,2821 7161,2826 7171,2836 7181,2846 7186,2859 7186,2875 L 7186,3175 7826,3175 C 7840,3175 7852,3180 7862,3190 7872,3200 7877,3212 7877,3226 7877,3240 7872,3252 7862,3262 7852,3272 7840,3276 7826,3276 L 7235,3276 C 7286,3359 7348,3442 7421,3524 7493,3607 7572,3686 7658,3760 7743,3834 7828,3899 7912,3955 7925,3963 7932,3975 7934,3989 7935,4004 7932,4017 7923,4030 7912,4042 7900,4050 7885,4054 7869,4057 7854,4054 7840,4043 7757,3985 7676,3919 7595,3848 7514,3776 7439,3700 7369,3620 7299,3540 7238,3458 7186,3375 L 7186,3932 7498,3932 C 7512,3932 7525,3936 7534,3946 7544,3956 7549,3968 7549,3982 7549,3997 7544,4009 7534,4019 7525,4028 7512,4033 7498,4033 L 7186,4033 7186,4328 C 7186,4344 7181,4357 7171,4367 7161,4377 7148,4382 7134,4382 Z"/>
    </g>
   </g>
  </g>
  <g class="Group">
   <g class="com.sun.star.drawing.ClosedBezierShape">
    <g id="id9">
     <rect class="BoundingBox" stroke="none" fill="none" x="10109" y="8074" width="3119" height="3130"/>
     <path fill="rgb(0,0,0)" stroke="none" d="M 10945,11203 C 10916,11203 10892,11193 10873,11174 10853,11155 10844,11131 10844,11101 L 10844,10146 C 10794,10221 10737,10298 10671,10378 10606,10459 10540,10536 10473,10610 10406,10685 10344,10749 10285,10803 10262,10824 10237,10835 10209,10837 10181,10839 10156,10830 10136,10810 10118,10792 10109,10769 10109,10742 10109,10715 10119,10694 10139,10678 10209,10619 10285,10546 10366,10458 10448,10370 10524,10280 10597,10189 10669,10097 10726,10019 10769,9953 L 10309,9953 C 10282,9953 10259,9944 10241,9925 10223,9905 10214,9883 10214,9859 10214,9832 10223,9809 10241,9791 10259,9773 10282,9764 10309,9764 L 10844,9764 10844,9408 10251,9408 C 10224,9408 10202,9399 10185,9380 10168,9360 10160,9338 10160,9314 10160,9289 10168,9267 10185,9249 10202,9231 10224,9222 10251,9222 L 10634,9222 C 10623,9188 10606,9146 10585,9097 10563,9047 10542,8998 10520,8950 10499,8901 10481,8864 10468,8839 10457,8815 10456,8791 10466,8768 10476,8746 10493,8730 10515,8721 10572,8698 10615,8714 10644,8768 10658,8795 10675,8834 10696,8883 10718,8933 10739,8984 10761,9036 10782,9088 10799,9131 10810,9165 10819,9183 10821,9202 10817,9222 L 11060,9222 C 11058,9204 11062,9187 11071,9171 11086,9137 11106,9095 11128,9043 11151,8991 11173,8938 11196,8883 11218,8829 11235,8785 11247,8751 11256,8724 11272,8706 11294,8697 11317,8688 11342,8687 11369,8694 11393,8703 11411,8719 11423,8741 11434,8764 11435,8788 11426,8812 11415,8844 11399,8886 11377,8938 11356,8990 11333,9041 11309,9093 11286,9145 11265,9188 11247,9222 L 11650,9222 C 11677,9222 11699,9231 11716,9249 11733,9267 11741,9289 11741,9314 11741,9338 11733,9360 11716,9380 11699,9399 11677,9408 11650,9408 L 11047,9408 11047,9764 11585,9764 C 11615,9764 11638,9773 11656,9791 11674,9809 11683,9832 11683,9859 11683,9883 11674,9905 11656,9925 11638,9944 11615,9953 11585,9953 L 11047,9953 11047,10045 C 11083,10083 11132,10130 11193,10184 11253,10238 11317,10291 11382,10343 11448,10395 11506,10439 11558,10475 11581,10491 11594,10512 11599,10539 11603,10566 11597,10590 11579,10610 11560,10633 11538,10645 11512,10648 11487,10650 11461,10642 11436,10624 11382,10581 11319,10527 11247,10463 11174,10399 11108,10336 11047,10275 L 11047,11101 C 11047,11131 11037,11155 11016,11174 10996,11193 10972,11203 10945,11203 Z M 12631,11203 C 12602,11203 12577,11193 12557,11174 12537,11155 12526,11130 12526,11098 L 12526,9429 12076,9429 C 12074,9677 12057,9901 12024,10101 11991,10301 11939,10484 11866,10649 11794,10815 11698,10971 11579,11115 11558,11138 11532,11152 11501,11157 11469,11163 11441,11157 11416,11139 11393,11121 11380,11098 11377,11069 11374,11041 11381,11017 11399,10997 11577,10809 11700,10577 11766,10299 11833,10021 11866,9699 11866,9331 L 11866,8863 C 11866,8714 11897,8605 11959,8535 12022,8465 12124,8413 12266,8379 12327,8363 12396,8345 12474,8323 12552,8302 12630,8279 12709,8256 12788,8232 12861,8210 12926,8190 12962,8178 12993,8178 13019,8188 13045,8198 13063,8217 13072,8244 13083,8273 13084,8302 13075,8330 13066,8358 13046,8377 13014,8386 12917,8415 12808,8446 12687,8477 12567,8509 12450,8537 12337,8562 12235,8585 12167,8618 12130,8664 12094,8709 12076,8779 12076,8873 L 12076,9226 13126,9226 C 13155,9226 13179,9235 13199,9254 13218,9274 13227,9298 13227,9327 13227,9357 13218,9381 13199,9400 13179,9419 13155,9429 13126,9429 L 12736,9429 12736,11098 C 12736,11130 12726,11155 12706,11174 12686,11193 12661,11203 12631,11203 Z M 10316,8653 C 10288,8653 10266,8644 10250,8626 10233,8608 10224,8586 10224,8562 10224,8537 10233,8515 10250,8497 10266,8479 10288,8470 10316,8470 L 10837,8470 10837,8176 C 10837,8146 10848,8122 10869,8103 10891,8084 10916,8074 10945,8074 10975,8074 11000,8084 11020,8103 11040,8122 11050,8146 11050,8176 L 11050,8470 11592,8470 C 11619,8470 11641,8479 11658,8497 11675,8515 11683,8537 11683,8562 11683,8586 11675,8608 11658,8626 11641,8644 11619,8653 11592,8653 L 10316,8653 Z"/>
    </g>
   </g>
   <g class="com.sun.star.drawing.ClosedBezierShape">
    <g id="id10">
     <rect class="BoundingBox" stroke="none" fill="none" x="14386" y="8290" width="1788" height="2714"/>
     <path fill="rgb(0,0,0)" stroke="none" d="M 15165,11003 C 14923,11003 14733,10941 14594,10817 14455,10693 14386,10500 14386,10238 L 14386,8396 C 14386,8367 14396,8342 14416,8321 14437,8301 14462,8291 14491,8291 14523,8291 14549,8301 14569,8321 14589,8342 14599,8367 14599,8396 L 14599,10238 C 14599,10378 14622,10489 14669,10570 14715,10651 14781,10708 14867,10741 14953,10774 15052,10790 15165,10790 15332,10790 15487,10744 15630,10651 15774,10559 15885,10428 15964,10258 15975,10231 15995,10213 16025,10202 16054,10192 16082,10194 16109,10207 16137,10221 16155,10242 16165,10270 16176,10298 16174,10326 16160,10353 16063,10561 15926,10721 15747,10834 15569,10947 15375,11003 15165,11003 Z"/>
    </g>
   </g>
   <g class="com.sun.star.drawing.ClosedBezierShape">
    <g id="id11">
     <rect class="BoundingBox" stroke="none" fill="none" x="17159" y="8795" width="2644" height="1780"/>
     <path fill="rgb(0,0,0)" stroke="none" d="M 17891,10573 C 17798,10577 17710,10557 17627,10510 17543,10464 17472,10392 17413,10295 17357,10203 17308,10080 17268,9926 17227,9773 17197,9606 17178,9425 17159,9245 17155,9068 17166,8897 17169,8868 17180,8843 17202,8822 17223,8802 17249,8793 17278,8795 17310,8798 17335,8810 17354,8833 17373,8855 17382,8881 17380,8910 17371,9075 17373,9239 17386,9403 17400,9567 17425,9716 17461,9852 17497,9987 17541,10098 17593,10184 17629,10240 17671,10283 17718,10314 17766,10344 17816,10359 17871,10356 18011,10354 18122,10226 18206,9974 18215,9944 18232,9923 18258,9909 18284,9896 18312,9894 18341,9903 18371,9912 18392,9930 18406,9957 18419,9984 18420,10011 18409,10038 18346,10223 18268,10357 18177,10439 18086,10522 17990,10566 17891,10573 Z M 19726,9977 C 19697,9986 19669,9984 19643,9972 19617,9960 19599,9940 19587,9913 19531,9768 19449,9628 19342,9493 19235,9357 19118,9248 18991,9164 18969,9149 18955,9125 18951,9095 18946,9065 18953,9038 18971,9015 18991,8991 19016,8978 19044,8976 19072,8975 19100,8984 19127,9002 19213,9056 19299,9129 19387,9220 19476,9312 19556,9411 19630,9518 19703,9625 19758,9732 19794,9838 19805,9868 19804,9895 19790,9921 19777,9947 19755,9966 19726,9977 Z"/>
    </g>
   </g>
  </g>
 </g>
</svg>